<?xml version="1.0" encoding="UTF-8"?>
<svg xmlns="http://www.w3.org/2000/svg" viewBox="0 0 579 625" role="img" aria-labelledby="title desc">
  <title id="title">Kairo K Character Logo - White</title>
  <desc id="desc">Standalone white vector SVG of the Kairo K character logo mark for dark backgrounds.</desc>
  <g id="kairo-k-mark" fill="#F0F0F0">
    <polygon points="12,3 90,81 168,5 167,1"/>
    <polygon points="372,2 410,79 561,4"/>
    <polygon points="356,10 110,305 216,305 393,94"/>
    <polygon points="184,17 101,98 101,284 185,184"/>
    <polygon points="576,18 412,97 242,304 370,304"/>
    <polygon points="5,19 2,603 83,524 83,97"/>
    <polygon points="111,319 356,613 394,532 219,320"/>
    <polygon points="242,321 410,523 576,604 372,321"/>
    <polygon points="102,340 101,525 184,606 185,439"/>
    <polygon points="14,618 18,622 171,620 94,541"/>
    <polygon points="373,617 375,622 564,620 414,542"/>
    <circle cx="446" cy="312" r="23"/>
  </g>
</svg>
