<?xml version="1.0" encoding="UTF-8"?>
<svg xmlns="http://www.w3.org/2000/svg" viewBox="206 193 500 500" role="img"
     aria-labelledby="kira-mark-on-light-title kira-mark-on-light-desc">
  <title id="kira-mark-on-light-title">Kira mark for light surfaces</title>
  <desc id="kira-mark-on-light-desc">Geometric Kira monogram in black.</desc>
  <path d="M 271 400 L 229 442 L 229 444 L 271 486 Z M 388 283 L 303 368 L 302 370 L 302 374 L 303 375 L 302 376 L 302 432 L 303 433 L 302 434 L 303 436 L 302 438 L 303 439 Z M 302 467 L 303 469 L 302 471 L 303 472 L 303 518 L 368 583 L 362 571 L 352 555 L 349 548 L 339 532 L 336 525 L 326 509 L 323 502 L 309 479 L 303 467 Z M 456 216 L 420 251 L 420 527 L 419 528 L 390 528 L 388 525 L 388 349 L 332 452 L 335 459 L 340 466 L 351 487 L 353 489 L 355 494 L 357 496 L 359 501 L 361 503 L 363 508 L 365 510 L 367 515 L 369 517 L 371 522 L 373 524 L 375 529 L 389 552 L 392 559 L 397 566 L 404 580 L 406 582 L 408 587 L 410 589 L 412 594 L 414 596 L 416 601 L 418 603 L 432 628 L 432 263 L 431 262 L 432 259 L 431 258 L 432 257 L 489 257 L 490 258 L 494 258 L 500 260 Z M 384 598 L 455 670 L 483 643 L 458 656 L 455 656 Z M 463 292 L 463 337 L 464 338 L 471 338 L 472 337 L 473 338 L 487 338 L 496 334 L 501 328 L 504 321 L 504 308 L 501 301 L 495 295 L 487 292 Z M 534 294 L 535 295 L 536 304 L 537 305 L 537 324 L 536 325 L 536 330 L 533 340 L 524 355 L 518 361 L 509 366 L 533 406 L 539 418 L 544 425 L 543 427 L 507 427 L 504 424 L 502 419 L 494 407 L 492 402 L 487 395 L 485 390 L 480 383 L 478 378 L 463 353 L 463 627 L 480 586 L 480 584 L 482 581 L 482 579 L 484 576 L 484 574 L 486 571 L 486 569 L 488 566 L 488 564 L 490 561 L 490 559 L 492 556 L 492 554 L 494 551 L 494 549 L 496 546 L 496 544 L 498 541 L 498 539 L 500 536 L 500 534 L 502 531 L 502 529 L 504 526 L 504 524 L 506 521 L 506 519 L 508 516 L 508 514 L 510 511 L 510 509 L 512 506 L 512 504 L 514 501 L 514 499 L 516 496 L 516 494 L 518 491 L 518 489 L 520 486 L 520 484 L 522 481 L 522 479 L 524 476 L 524 474 L 526 471 L 526 469 L 528 466 L 528 464 L 530 461 L 530 459 L 533 454 L 534 449 L 537 444 L 537 442 L 539 439 L 539 437 L 541 434 L 541 432 L 543 429 L 543 427 L 545 424 L 545 422 L 547 419 L 547 417 L 549 414 L 549 412 L 551 409 L 551 407 L 553 404 L 553 402 L 555 399 L 555 397 L 557 394 L 557 392 L 559 389 L 559 387 L 561 384 L 561 382 L 563 379 L 563 377 L 565 374 L 565 372 L 567 369 L 577 342 L 579 339 Z M 608 480 L 556 480 L 496 630 L 619 507 Z M 582 414 L 578 426 L 570 444 L 569 449 L 595 449 Z M 589 349 L 591 352 L 599 374 L 602 379 L 610 401 L 613 406 L 619 423 L 622 428 L 622 430 L 624 433 L 632 455 L 635 460 L 639 472 L 644 482 L 683 443 Z" fill="#000000"/>
</svg>
